<svg data-v-423bf9ae="" xmlns="http://www.w3.org/2000/svg" viewBox="0 0 687 90" class="iconLeft"><!----><!----><!----><g data-v-423bf9ae="" id="20a13a8e-7eb4-4b91-9ea0-7a1d722c4267" fill="white" transform="matrix(5.830904006958008,0,0,5.830904006958008,159.4667205810547,4.854224681854248)"><path d="M6.19 2.45L6.19 11.61L6.19 11.61Q6.19 11.80 5.99 11.80L5.99 11.80L5.36 11.80L5.36 11.80Q5.17 11.80 5.17 11.61L5.17 11.61L5.17 7.29L1.82 7.29L1.82 11.61L1.82 11.61Q1.82 11.80 1.62 11.80L1.62 11.80L0.99 11.80L0.99 11.80Q0.80 11.80 0.80 11.61L0.80 11.61L0.80 2.45L0.80 2.45Q0.80 2.25 0.99 2.25L0.99 2.25L1.62 2.25L1.62 2.25Q1.82 2.25 1.82 2.45L1.82 2.45L1.82 6.41L5.17 6.41L5.17 2.45L5.17 2.45Q5.17 2.25 5.36 2.25L5.36 2.25L5.99 2.25L5.99 2.25Q6.19 2.25 6.19 2.45L6.19 2.45ZM12.18 8.57L12.18 8.13L11.91 8.13L11.91 8.13Q11.13 8.11 10.60 8.19L10.60 8.19L10.60 8.19Q10.07 8.27 9.69 8.46L9.69 8.46L9.69 8.46Q9.23 8.65 8.97 9.07L8.97 9.07L8.97 9.07Q8.72 9.48 8.72 9.91L8.72 9.91L8.72 9.91Q8.72 10.16 8.83 10.45L8.83 10.45L8.83 10.45Q8.95 10.74 9.18 10.89L9.18 10.89L9.18 10.89Q9.59 11.23 10.09 11.23L10.09 11.23L10.09 11.23Q10.58 11.23 10.91 11.04L10.91 11.04L10.91 11.04Q11.23 10.85 11.54 10.45L11.54 10.45L11.54 10.45Q11.84 10.05 12.01 9.55L12.01 9.55L12.01 9.55Q12.18 9.04 12.18 8.57L12.18 8.57ZM8.58 5.95L8.58 5.95L8.58 5.95Q8.51 5.99 8.45 5.97L8.45 5.97L8.45 5.97Q8.39 5.95 8.39 5.88L8.39 5.88L8.39 5.33L8.39 5.33Q8.39 5.15 8.58 5.07L8.58 5.07L8.58 5.07Q9.06 4.79 9.55 4.68L9.55 4.68L9.55 4.68Q10.05 4.56 10.63 4.56L10.63 4.56L10.63 4.56Q11.84 4.54 12.49 5.26L12.49 5.26L12.49 5.26Q13.13 5.99 13.13 7.07L13.13 7.07L13.13 10.33L13.13 10.33Q13.13 10.72 13.15 11.03L13.15 11.03L13.15 11.03Q13.16 11.34 13.19 11.62L13.19 11.62L13.19 11.62Q13.19 11.80 12.99 11.80L12.99 11.80L12.49 11.80L12.49 11.80Q12.29 11.80 12.29 11.62L12.29 11.62L12.29 10.63L12.29 10.63Q12.00 11.28 11.40 11.66L11.40 11.66L11.40 11.66Q10.79 12.03 9.98 12.03L9.98 12.03L9.98 12.03Q8.78 12.03 8.12 11.24L8.12 11.24L8.12 11.24Q7.90 10.99 7.78 10.64L7.78 10.64L7.78 10.64Q7.67 10.29 7.67 9.95L7.67 9.95L7.67 9.95Q7.67 9.23 8.07 8.62L8.07 8.62L8.07 8.62Q8.47 8.01 9.30 7.70L9.30 7.70L9.30 7.70Q10.09 7.34 12.00 7.34L12.00 7.34L12.18 7.34L12.18 7.01L12.18 7.01Q12.18 6.30 11.78 5.83L11.78 5.83L11.78 5.83Q11.38 5.36 10.63 5.36L10.63 5.36L10.63 5.36Q10.02 5.36 9.55 5.50L9.55 5.50L9.55 5.50Q9.09 5.63 8.58 5.95ZM15.27 10.88L15.27 10.88L15.27 10.88Q16.17 11.23 17.12 11.23L17.12 11.23L17.12 11.23Q17.92 11.23 18.47 10.83L18.47 10.83L18.47 10.83Q19.03 10.43 19.03 10.02L19.03 10.02L19.03 10.02Q19.03 9.65 18.72 9.37L18.72 9.37L18.72 9.37Q18.41 9.09 17.96 8.86L17.96 8.86L17.96 8.86Q17.49 8.61 17.03 8.38L17.03 8.38L17.03 8.38Q16.58 8.15 16.11 7.91L16.11 7.91L16.11 7.91Q15.58 7.64 15.34 7.26L15.34 7.26L15.34 7.26Q15.09 6.87 15.09 6.51L15.09 6.51L15.09 6.51Q15.09 6.06 15.29 5.71L15.29 5.71L15.29 5.71Q15.48 5.36 15.82 5.10L15.82 5.10L15.82 5.10Q16.16 4.83 16.64 4.70L16.64 4.70L16.64 4.70Q17.12 4.56 17.67 4.56L17.67 4.56L17.67 4.56Q18.17 4.56 18.59 4.62L18.59 4.62L18.59 4.62Q19.01 4.68 19.46 4.82L19.46 4.82L19.46 4.82Q19.56 4.84 19.62 4.90L19.62 4.90L19.62 4.90Q19.68 4.96 19.67 5.04L19.67 5.04L19.63 5.49L19.63 5.49Q19.61 5.60 19.54 5.63L19.54 5.63L19.54 5.63Q19.46 5.66 19.39 5.63L19.39 5.63L19.39 5.63Q18.98 5.47 18.61 5.42L18.61 5.42L18.61 5.42Q18.23 5.36 17.77 5.36L17.77 5.36L17.77 5.36Q16.07 5.36 16.07 6.51L16.07 6.51L16.07 6.51Q16.07 6.72 16.30 6.95L16.30 6.95L16.30 6.95Q16.52 7.18 17.07 7.42L17.07 7.42L17.07 7.42Q17.60 7.67 18.02 7.88L18.02 7.88L18.02 7.88Q18.45 8.08 18.97 8.36L18.97 8.36L18.97 8.36Q19.59 8.72 19.82 9.11L19.82 9.11L19.82 9.11Q20.05 9.51 20.05 10.01L20.05 10.01L20.05 10.01Q20.05 10.42 19.81 10.84L19.81 10.84L19.81 10.84Q19.57 11.26 19.17 11.51L19.17 11.51L19.17 11.51Q18.77 11.76 18.26 11.89L18.26 11.89L18.26 11.89Q17.74 12.03 17.21 12.03L17.21 12.03L17.21 12.03Q16.87 12.03 16.61 12.01L16.61 12.01L16.61 12.01Q16.35 12.00 16.12 11.97L16.12 11.97L16.12 11.97Q15.89 11.94 15.66 11.90L15.66 11.90L15.66 11.90Q15.43 11.86 15.18 11.79L15.18 11.79L15.18 11.79Q14.95 11.72 14.97 11.55L14.97 11.55L15.04 11.00L15.04 11.00Q15.08 10.79 15.27 10.88ZM25.14 10.93L26.81 10.93L26.81 10.93Q27.01 10.93 27.01 11.13L27.01 11.13L27.01 11.61L27.01 11.61Q27.01 11.80 26.81 11.80L26.81 11.80L22.34 11.80L22.34 11.80Q22.15 11.80 22.15 11.61L22.15 11.61L22.15 11.13L22.15 11.13Q22.15 10.93 22.34 10.93L22.34 10.93L24.14 10.93L24.14 5.66L22.50 5.66L22.50 5.66Q22.30 5.66 22.30 5.46L22.30 5.46L22.30 4.98L22.30 4.98Q22.30 4.79 22.50 4.79L22.50 4.79L24.95 4.79L24.95 4.79Q25.14 4.79 25.14 4.98L25.14 4.98L25.14 10.93ZM23.70 2.52L23.70 2.52L23.70 2.52Q23.70 2.20 23.93 1.97L23.93 1.97L23.93 1.97Q24.16 1.74 24.49 1.74L24.49 1.74L24.49 1.74Q24.81 1.74 25.04 1.97L25.04 1.97L25.04 1.97Q25.27 2.20 25.27 2.52L25.27 2.52L25.27 2.52Q25.27 2.84 25.04 3.07L25.04 3.07L25.04 3.07Q24.81 3.30 24.49 3.30L24.49 3.30L24.49 3.30Q24.16 3.30 23.93 3.07L23.93 3.07L23.93 3.07Q23.70 2.84 23.70 2.52ZM34.12 7.53L34.12 11.61L34.12 11.61Q34.12 11.80 33.92 11.80L33.92 11.80L33.36 11.80L33.36 11.80Q33.17 11.80 33.17 11.61L33.17 11.61L33.17 7.76L33.17 7.76Q33.17 6.47 32.82 5.93L32.82 5.93L32.82 5.93Q32.47 5.39 31.63 5.39L31.63 5.39L31.63 5.39Q30.88 5.39 30.38 5.99L30.38 5.99L30.38 5.99Q29.88 6.58 29.88 7.78L29.88 7.78L29.88 11.61L29.88 11.61Q29.88 11.80 29.68 11.80L29.68 11.80L29.12 11.80L29.12 11.80Q28.92 11.80 28.92 11.61L28.92 11.61L28.92 6.57L28.92 6.57Q28.92 5.96 28.92 5.63L28.92 5.63L28.92 5.63Q28.91 5.29 28.88 4.98L28.88 4.98L28.88 4.98Q28.87 4.89 28.93 4.84L28.93 4.84L28.93 4.84Q28.99 4.79 29.08 4.79L29.08 4.79L29.58 4.79L29.58 4.79Q29.78 4.79 29.78 4.98L29.78 4.98L29.78 5.77L29.78 5.77Q30.11 5.17 30.60 4.88L30.60 4.88L30.60 4.88Q31.08 4.59 31.71 4.59L31.71 4.59L31.71 4.59Q32.94 4.59 33.53 5.36L33.53 5.36L33.53 5.36Q34.12 6.13 34.12 7.53L34.12 7.53ZM40.18 8.57L40.18 8.13L39.91 8.13L39.91 8.13Q39.13 8.11 38.60 8.19L38.60 8.19L38.60 8.19Q38.07 8.27 37.69 8.46L37.69 8.46L37.69 8.46Q37.23 8.65 36.97 9.07L36.97 9.07L36.97 9.07Q36.72 9.48 36.72 9.91L36.72 9.91L36.72 9.91Q36.72 10.16 36.83 10.45L36.83 10.45L36.83 10.45Q36.95 10.74 37.18 10.89L37.18 10.89L37.18 10.89Q37.59 11.23 38.09 11.23L38.09 11.23L38.09 11.23Q38.58 11.23 38.91 11.04L38.91 11.04L38.91 11.04Q39.23 10.85 39.54 10.45L39.54 10.45L39.54 10.45Q39.84 10.05 40.01 9.55L40.01 9.55L40.01 9.55Q40.18 9.04 40.18 8.57L40.18 8.57ZM36.58 5.95L36.58 5.95L36.58 5.95Q36.51 5.99 36.45 5.97L36.45 5.97L36.45 5.97Q36.39 5.95 36.39 5.88L36.39 5.88L36.39 5.33L36.39 5.33Q36.39 5.15 36.58 5.07L36.58 5.07L36.58 5.07Q37.06 4.79 37.55 4.68L37.55 4.68L37.55 4.68Q38.05 4.56 38.63 4.56L38.63 4.56L38.63 4.56Q39.84 4.54 40.49 5.26L40.49 5.26L40.49 5.26Q41.13 5.99 41.13 7.07L41.13 7.07L41.13 10.33L41.13 10.33Q41.13 10.72 41.15 11.03L41.15 11.03L41.15 11.03Q41.16 11.34 41.19 11.62L41.19 11.62L41.19 11.62Q41.19 11.80 40.99 11.80L40.99 11.80L40.49 11.80L40.49 11.80Q40.29 11.80 40.29 11.62L40.29 11.62L40.29 10.63L40.29 10.63Q40.00 11.28 39.40 11.66L39.40 11.66L39.40 11.66Q38.79 12.03 37.98 12.03L37.98 12.03L37.98 12.03Q36.78 12.03 36.12 11.24L36.12 11.24L36.12 11.24Q35.90 10.99 35.78 10.64L35.78 10.64L35.78 10.64Q35.67 10.29 35.67 9.95L35.67 9.95L35.67 9.95Q35.67 9.23 36.07 8.62L36.07 8.62L36.07 8.62Q36.47 8.01 37.30 7.70L37.30 7.70L37.30 7.70Q38.09 7.34 40.00 7.34L40.00 7.34L40.18 7.34L40.18 7.01L40.18 7.01Q40.18 6.30 39.78 5.83L39.78 5.83L39.78 5.83Q39.38 5.36 38.63 5.36L38.63 5.36L38.63 5.36Q38.02 5.36 37.55 5.50L37.55 5.50L37.55 5.50Q37.09 5.63 36.58 5.95ZM47.95 11.82L43.46 11.82L43.46 11.82Q43.16 11.82 43.11 11.77L43.11 11.77L43.11 11.77Q43.06 11.72 43.06 11.42L43.06 11.42L43.06 2.62L43.06 2.62Q43.06 2.35 43.11 2.30L43.11 2.30L43.11 2.30Q43.16 2.25 43.43 2.25L43.43 2.25L47.78 2.25L47.78 2.25Q47.98 2.25 47.98 2.45L47.98 2.45L47.98 2.94L47.98 2.94Q47.98 3.14 47.78 3.14L47.78 3.14L44.09 3.14L44.09 6.41L47.57 6.41L47.57 6.41Q47.77 6.41 47.77 6.61L47.77 6.61L47.77 7.11L47.77 7.11Q47.77 7.31 47.57 7.31L47.57 7.31L44.09 7.31L44.09 10.92L47.95 10.92L47.95 10.92Q48.15 10.92 48.15 11.12L48.15 11.12L48.15 11.62L48.15 11.62Q48.15 11.82 47.95 11.82L47.95 11.82ZM55.57 3.12L53.00 3.12L53.00 11.61L53.00 11.61Q53.00 11.80 52.81 11.80L52.81 11.80L52.16 11.80L52.16 11.80Q51.97 11.80 51.97 11.61L51.97 11.61L51.97 3.12L49.43 3.12L49.43 3.12Q49.24 3.12 49.24 2.93L49.24 2.93L49.24 2.45L49.24 2.45Q49.24 2.25 49.43 2.25L49.43 2.25L55.57 2.25L55.57 2.25Q55.76 2.25 55.76 2.45L55.76 2.45L55.76 2.93L55.76 2.93Q55.76 3.12 55.57 3.12L55.57 3.12ZM57.72 2.45L57.72 8.92L57.72 8.92Q57.72 9.95 58.20 10.51L58.20 10.51L58.20 10.51Q58.76 11.12 59.50 11.12L59.50 11.12L59.50 11.12Q60.24 11.12 60.80 10.51L60.80 10.51L60.80 10.51Q61.05 10.23 61.17 9.85L61.17 9.85L61.17 9.85Q61.28 9.46 61.28 8.92L61.28 8.92L61.28 2.45L61.28 2.45Q61.28 2.25 61.49 2.25L61.49 2.25L62.12 2.25L62.12 2.25Q62.30 2.25 62.30 2.45L62.30 2.45L62.30 8.92L62.30 8.92Q62.30 9.74 62.04 10.37L62.04 10.37L62.04 10.37Q61.78 11.00 61.29 11.41L61.29 11.41L61.29 11.41Q60.49 12.03 59.50 12.03L59.50 12.03L59.50 12.03Q58.51 12.03 57.71 11.41L57.71 11.41L57.71 11.41Q56.70 10.63 56.70 8.92L56.70 8.92L56.70 2.45L56.70 2.45Q56.70 2.25 56.90 2.25L56.90 2.25L57.57 2.25L57.57 2.25Q57.72 2.25 57.72 2.45L57.72 2.45ZM67.42 2.65L67.42 11.66L67.42 11.66Q67.42 11.86 67.23 11.86L67.23 11.86L66.65 11.86L66.65 11.86Q66.46 11.86 66.46 11.66L66.46 11.66L66.46 3.40L66.46 3.40Q66.02 3.77 65.65 4.09L65.65 4.09L65.65 4.09Q65.27 4.41 64.85 4.77L64.85 4.77L64.85 4.77Q64.69 4.90 64.57 4.75L64.57 4.75L64.29 4.41L64.29 4.41Q64.25 4.34 64.25 4.26L64.25 4.26L64.25 4.26Q64.25 4.19 64.32 4.13L64.32 4.13L66.49 2.31L66.49 2.31Q66.54 2.25 66.65 2.25L66.65 2.25L67.03 2.25L67.03 2.25Q67.33 2.25 67.38 2.30L67.38 2.30L67.38 2.30Q67.42 2.35 67.42 2.65L67.42 2.65ZM76.22 3.19L72.90 11.66L72.90 11.66Q72.80 11.86 72.62 11.86L72.62 11.86L71.92 11.86L71.92 11.86Q71.83 11.86 71.80 11.80L71.80 11.80L71.80 11.80Q71.76 11.75 71.81 11.66L71.81 11.66L75.25 3.12L70.94 3.12L70.94 3.12Q70.74 3.12 70.74 2.93L70.74 2.93L70.74 2.45L70.74 2.45Q70.74 2.25 70.94 2.25L70.94 2.25L75.87 2.25L75.87 2.25Q76.16 2.25 76.21 2.30L76.21 2.30L76.21 2.30Q76.26 2.35 76.26 2.65L76.26 2.65L76.26 3.00L76.26 3.00Q76.26 3.11 76.22 3.19L76.22 3.19ZM82.78 3.19L82.78 3.19L82.78 3.19Q82.47 3.08 82.16 3.02L82.16 3.02L82.16 3.02Q81.84 2.95 81.55 2.95L81.55 2.95L81.55 2.95Q80.16 2.95 79.31 4.20L79.31 4.20L79.31 4.20Q78.58 5.31 78.54 7.07L78.54 7.07L78.54 7.07Q78.82 6.54 79.28 6.17L79.28 6.17L79.28 6.17Q79.88 5.70 80.71 5.70L80.71 5.70L80.71 5.70Q81.63 5.70 82.36 6.33L82.36 6.33L82.36 6.33Q83.40 7.22 83.40 8.75L83.40 8.75L83.40 8.75Q83.40 10.11 82.57 11.03L82.57 11.03L82.57 11.03Q81.73 11.96 80.61 11.96L80.61 11.96L80.61 11.96Q79.49 11.96 78.64 11.05L78.64 11.05L78.64 11.05Q77.60 9.90 77.59 7.35L77.59 7.35L77.59 7.35Q77.59 5.04 78.61 3.61L78.61 3.61L78.61 3.61Q79.80 2.09 81.52 2.09L81.52 2.09L81.52 2.09Q81.79 2.09 82.15 2.14L82.15 2.14L82.15 2.14Q82.52 2.18 82.84 2.28L82.84 2.28L82.84 2.28Q83.05 2.31 83.02 2.51L83.02 2.51L82.99 3.07L82.99 3.07Q82.99 3.15 82.92 3.19L82.92 3.19L82.92 3.19Q82.85 3.22 82.78 3.19ZM82.43 8.82L82.43 8.82L82.43 8.82Q82.45 8.02 82.05 7.39L82.05 7.39L82.05 7.39Q81.49 6.58 80.61 6.58L80.61 6.58L80.61 6.58Q80.28 6.57 79.91 6.75L79.91 6.75L79.91 6.75Q79.53 6.93 79.28 7.28L79.28 7.28L79.28 7.28Q79.02 7.63 78.90 8.04L78.90 8.04L78.90 8.04Q78.78 8.44 78.78 8.82L78.78 8.82L78.78 8.82Q78.78 9.62 79.17 10.25L79.17 10.25L79.17 10.25Q79.73 11.10 80.61 11.10L80.61 11.10L80.61 11.10Q81.49 11.10 82.05 10.25L82.05 10.25L82.05 10.25Q82.42 9.62 82.43 8.82ZM90.15 11.86L84.97 11.86L84.97 11.86Q84.83 11.86 84.75 11.85L84.75 11.85L84.75 11.85Q84.67 11.84 84.64 11.81L84.64 11.81L84.64 11.81Q84.60 11.77 84.59 11.70L84.59 11.70L84.59 11.70Q84.59 11.62 84.59 11.47L84.59 11.47L84.59 11.16L84.59 11.16Q84.59 10.98 84.70 10.88L84.70 10.88L86.81 8.69L86.81 8.69Q89.07 6.29 89.05 4.96L89.05 4.96L89.05 4.96Q89.07 4.03 88.65 3.54L88.65 3.54L88.65 3.54Q88.17 3.01 87.33 2.98L87.33 2.98L87.33 2.98Q86.34 2.98 85.32 3.61L85.32 3.61L85.32 3.61Q85.13 3.71 85.09 3.53L85.09 3.53L85.01 3.07L85.01 3.07Q84.97 2.83 85.15 2.76L85.15 2.76L85.15 2.76Q85.71 2.45 86.23 2.30L86.23 2.30L86.23 2.30Q86.74 2.14 87.30 2.14L87.30 2.14L87.30 2.14Q88.42 2.14 89.22 2.81L89.22 2.81L89.22 2.81Q90.10 3.54 90.10 4.89L90.10 4.89L90.10 4.89Q90.10 5.40 89.87 6.03L89.87 6.03L89.87 6.03Q89.63 6.65 89.11 7.35L89.11 7.35L89.11 7.35Q88.62 7.97 88.31 8.34L88.31 8.34L88.31 8.34Q88.00 8.71 87.50 9.25L87.50 9.25L87.50 9.25Q86.95 9.83 86.64 10.15L86.64 10.15L86.64 10.15Q86.32 10.47 85.81 10.99L85.81 10.99L90.13 10.99L90.13 10.99Q90.34 11.00 90.33 11.19L90.33 11.19L90.33 11.68L90.33 11.68Q90.33 11.86 90.15 11.86L90.15 11.86Z"></path></g><!----><g data-v-423bf9ae="" id="8d5e6e11-2f14-42dd-a25f-559178447c3d" transform="matrix(1.4413145780563354,0,0,1.4413145780563354,0.9342710971832275,-26.291858673095703)" stroke="none" fill="white"><path d="M97.938 68.771h-6.316V20.81a2.022 2.022 0 0 0-2.021-2.021H10.399a2.022 2.022 0 0 0-2.021 2.021v47.961H2.062A2.062 2.062 0 0 0 0 70.832v2.084c0 .103.008.204.022.306.527 3.521 3.348 7.447 7.159 7.922.083.01.169.017.252.017l84.51.071h.003c4.404 0 7.604-4.197 8.041-8.085.009-.075.013-.152.013-.23v-2.084a2.062 2.062 0 0 0-2.062-2.062zM12.42 22.831h75.16V68.77H59.985c-.133 0-.262.016-.386.04H41.16a2.07 2.07 0 0 0-.396-.04H12.42V22.831zm79.528 54.276l-84.362-.071c-1.461-.261-3.024-2.16-3.434-4.143h35.086c.702 1.246 2.017 2.085 3.519 2.085H57.99c1.502 0 2.816-.839 3.52-2.085h34.35c-.322 2.033-2.006 4.214-3.912 4.214zM38.84 37.498a2.083 2.083 0 0 0-2.947 0l-8.689 8.689a2.085 2.085 0 0 0 0 2.948l8.689 8.688a2.08 2.08 0 0 0 2.948 0 2.083 2.083 0 0 0 0-2.947l-7.216-7.215 7.216-7.216a2.084 2.084 0 0 0-.001-2.947zm20.521 20.325a2.081 2.081 0 0 0 2.948 0l8.688-8.688a2.085 2.085 0 0 0 0-2.948l-8.688-8.689a2.083 2.083 0 1 0-2.947 2.947l7.215 7.216-7.215 7.215a2.083 2.083 0 0 0-.001 2.947zm-17.568 4.452a2.085 2.085 0 0 0 2.797-.932l12.506-25.011a2.083 2.083 0 0 0-.933-2.796 2.087 2.087 0 0 0-2.797.932L40.861 59.479a2.083 2.083 0 0 0 .932 2.796z"></path></g><!----></svg>