<svg data-v-423bf9ae="" xmlns="http://www.w3.org/2000/svg" viewBox="0 0 525.2588877368416 198" class="iconAboveSlogan"><!----><!----><!----><g data-v-423bf9ae="" id="d8b2a0ad-0802-4331-a3d6-00bed8043dbb" fill="#000000" transform="matrix(6.091371059417725,0,0,6.091371059417725,-6.39592981338501,80.88832092285156)"><path d="M2.03 13.30L2.03 9.04L6.36 9.04L6.36 13.30L7.34 13.30L7.34 3.78L6.36 3.78L6.36 8.06L2.03 8.06L2.03 3.78L1.05 3.78L1.05 13.30ZM14.34 10.22C14.34 10.82 14.13 11.34 13.71 11.79C13.30 12.24 12.78 12.46 12.17 12.46C11.55 12.46 11.04 12.24 10.62 11.79C10.20 11.34 10.00 10.82 10.00 10.22C10.00 9.62 10.20 9.10 10.62 8.65C11.04 8.20 11.55 7.98 12.17 7.98C12.78 7.98 13.30 8.20 13.71 8.65C14.13 9.10 14.34 9.62 14.34 10.22ZM15.32 13.30L15.32 7.14L14.34 7.14L14.34 8.19C14.28 8.12 14.22 8.05 14.16 7.98C13.58 7.33 12.86 7.00 12.01 7.00C11.16 7.00 10.44 7.33 9.86 7.98C9.30 8.61 9.02 9.36 9.02 10.22C9.02 11.08 9.30 11.83 9.86 12.46C10.44 13.11 11.16 13.44 12.01 13.44C12.86 13.44 13.58 13.11 14.16 12.46C14.22 12.39 14.28 12.32 14.34 12.25L14.34 13.30ZM18.31 12.42C18.06 12.26 17.88 11.98 17.78 11.58L16.74 11.58C16.96 12.85 17.78 13.48 19.21 13.48C19.54 13.48 19.85 13.44 20.14 13.36C20.43 13.28 20.69 13.17 20.93 13.01C21.40 12.69 21.64 12.20 21.64 11.54C21.64 10.88 21.32 10.39 20.69 10.09C20.42 9.96 20.12 9.86 19.81 9.79C19.50 9.72 19.20 9.64 18.93 9.56C18.66 9.47 18.43 9.37 18.25 9.24C18.07 9.11 17.97 8.91 17.97 8.63C17.97 8.35 18.09 8.15 18.31 8.01C18.53 7.88 18.79 7.81 19.10 7.81C19.40 7.81 19.66 7.87 19.87 7.98C20.09 8.09 20.25 8.32 20.35 8.67L21.40 8.67C21.27 8.04 21.01 7.61 20.61 7.37C20.21 7.12 19.72 7.00 19.12 7.00C18.53 7.00 18.01 7.16 17.58 7.47C17.15 7.79 16.94 8.25 16.94 8.86C16.94 9.17 17.02 9.43 17.17 9.66C17.33 9.88 17.57 10.07 17.89 10.22C18.16 10.34 18.46 10.44 18.77 10.52C19.08 10.59 19.37 10.68 19.64 10.76C20.28 10.97 20.61 11.27 20.61 11.66C20.61 12.33 20.16 12.67 19.26 12.67C18.87 12.67 18.56 12.59 18.31 12.42ZM24.04 5.01C23.92 4.89 23.77 4.83 23.60 4.83C23.42 4.83 23.28 4.89 23.16 5.01C23.03 5.13 22.97 5.28 22.97 5.45C22.97 5.63 23.03 5.77 23.16 5.89C23.28 6.02 23.42 6.08 23.60 6.08C23.77 6.08 23.92 6.02 24.04 5.89C24.16 5.77 24.22 5.63 24.22 5.45C24.22 5.28 24.16 5.13 24.04 5.01ZM24.09 13.30L24.09 7.14L23.11 7.14L23.11 13.30ZM30.51 13.30L31.49 13.30L31.49 9.45C31.49 8.74 31.30 8.16 30.93 7.72C30.74 7.50 30.51 7.33 30.24 7.20C29.97 7.08 29.61 7.01 29.18 7.01C28.74 7.01 28.35 7.13 28.01 7.36C27.70 7.57 27.44 7.85 27.23 8.20L27.23 7.14L26.25 7.14L26.25 13.30L27.23 13.30L27.23 10.72C27.23 9.94 27.38 9.32 27.67 8.86C27.83 8.60 28.05 8.39 28.31 8.23C28.57 8.07 28.91 7.99 29.33 7.99C29.75 7.99 30.05 8.14 30.23 8.42C30.41 8.71 30.51 9.05 30.51 9.45ZM38.28 10.22C38.28 10.82 38.07 11.34 37.65 11.79C37.24 12.24 36.72 12.46 36.11 12.46C35.49 12.46 34.98 12.24 34.56 11.79C34.14 11.34 33.94 10.82 33.94 10.22C33.94 9.62 34.14 9.10 34.56 8.65C34.98 8.20 35.49 7.98 36.11 7.98C36.72 7.98 37.24 8.20 37.65 8.65C38.07 9.10 38.28 9.62 38.28 10.22ZM39.26 13.30L39.26 7.14L38.28 7.14L38.28 8.19C38.22 8.12 38.16 8.05 38.10 7.98C37.52 7.33 36.80 7.00 35.95 7.00C35.10 7.00 34.38 7.33 33.80 7.98C33.24 8.61 32.96 9.36 32.96 10.22C32.96 11.08 33.24 11.83 33.80 12.46C34.38 13.11 35.10 13.44 35.95 13.44C36.80 13.44 37.52 13.11 38.10 12.46C38.16 12.39 38.22 12.32 38.28 12.25L38.28 13.30ZM47.01 13.30L47.01 12.39L42.34 12.39L42.34 9.00L46.87 9.00L46.87 8.08L42.34 8.08L42.34 4.69L47.01 4.69L47.01 3.78L41.36 3.78L41.36 13.30ZM48.34 4.66L50.65 4.66L50.65 13.27L51.63 13.27L51.63 4.66L53.94 4.66L53.94 3.75L51.63 3.75L50.65 3.75L48.34 3.75ZM62.16 10.15L62.16 3.78L61.18 3.78L61.18 10.29C61.18 10.67 61.11 11.00 60.97 11.27C60.56 12.05 59.78 12.45 58.62 12.45C57.87 12.45 57.27 12.28 56.82 11.94C56.30 11.56 56.04 11.01 56.04 10.29L56.04 3.78L55.06 3.78L55.06 10.15C55.06 11.18 55.40 11.99 56.07 12.59C56.70 13.15 57.55 13.43 58.62 13.43C59.67 13.43 60.52 13.15 61.15 12.59C61.82 11.99 62.16 11.18 62.16 10.15ZM65.07 13.30L66.05 13.30L66.05 3.67L63.70 3.92L63.70 4.77L65.07 4.77ZM69.23 13.30L73.42 3.82L67.44 3.82L67.44 4.80L71.89 4.80L68.14 13.30ZM76.12 8.11C76.73 8.11 77.25 8.33 77.68 8.76C78.10 9.20 78.32 9.72 78.32 10.32C78.32 10.91 78.10 11.41 77.67 11.84C77.25 12.26 76.73 12.47 76.12 12.47C75.52 12.47 74.99 12.26 74.55 11.82C74.11 11.39 73.89 10.88 73.89 10.28C73.89 9.68 74.11 9.17 74.55 8.75C74.76 8.55 74.99 8.40 75.26 8.28C75.53 8.16 75.82 8.11 76.12 8.11ZM79.31 10.25C79.31 9.33 78.98 8.57 78.33 7.98C77.73 7.43 76.95 7.14 75.99 7.10L75.71 7.28L78.62 3.78L77.34 3.78L73.61 8.27C73.14 8.85 72.90 9.51 72.90 10.28C72.90 11.16 73.21 11.91 73.84 12.52C74.47 13.14 75.22 13.45 76.10 13.45C77.00 13.45 77.76 13.15 78.37 12.53C78.66 12.24 78.89 11.90 79.06 11.52C79.23 11.14 79.31 10.71 79.31 10.25ZM80.57 13.30L87.28 13.30L87.28 12.32L82.94 12.32L86.25 9.03C86.87 8.41 87.18 7.67 87.18 6.80C87.18 5.92 86.86 5.17 86.23 4.56C85.59 3.94 84.83 3.63 83.96 3.63C83.05 3.63 82.27 3.95 81.63 4.61C81.00 5.25 80.70 6.03 80.74 6.94L81.73 6.94C81.68 6.35 81.88 5.82 82.33 5.33C82.76 4.87 83.29 4.63 83.92 4.63C84.53 4.63 85.05 4.84 85.48 5.26C85.91 5.69 86.13 6.20 86.13 6.79C86.13 7.40 85.92 7.91 85.50 8.33Z"></path></g><defs data-v-423bf9ae=""><linearGradient data-v-423bf9ae="" gradientTransform="rotate(25)" id="5500119f-8133-4c07-914e-af873b9735cb" x1="0%" y1="0%" x2="100%" y2="0%"><stop data-v-423bf9ae="" offset="0%" style="stop-color: rgb(90, 90, 45); stop-opacity: 1;"></stop><stop data-v-423bf9ae="" offset="100%" style="stop-color: rgb(13, 227, 13); stop-opacity: 1;"></stop></linearGradient></defs><g data-v-423bf9ae="" id="a6b0b2de-5d46-4638-86c4-218b781fc850" transform="matrix(1.4413145780563354,0,0,1.4413145780563354,190.93426513671875,-26.291858673095703)" stroke="none" fill="url(#5500119f-8133-4c07-914e-af873b9735cb)"><path d="M97.938 68.771h-6.316V20.81a2.022 2.022 0 0 0-2.021-2.021H10.399a2.022 2.022 0 0 0-2.021 2.021v47.961H2.062A2.062 2.062 0 0 0 0 70.832v2.084c0 .103.008.204.022.306.527 3.521 3.348 7.447 7.159 7.922.083.01.169.017.252.017l84.51.071h.003c4.404 0 7.604-4.197 8.041-8.085.009-.075.013-.152.013-.23v-2.084a2.062 2.062 0 0 0-2.062-2.062zM12.42 22.831h75.16V68.77H59.985c-.133 0-.262.016-.386.04H41.16a2.07 2.07 0 0 0-.396-.04H12.42V22.831zm79.528 54.276l-84.362-.071c-1.461-.261-3.024-2.16-3.434-4.143h35.086c.702 1.246 2.017 2.085 3.519 2.085H57.99c1.502 0 2.816-.839 3.52-2.085h34.35c-.322 2.033-2.006 4.214-3.912 4.214zM38.84 37.498a2.083 2.083 0 0 0-2.947 0l-8.689 8.689a2.085 2.085 0 0 0 0 2.948l8.689 8.688a2.08 2.08 0 0 0 2.948 0 2.083 2.083 0 0 0 0-2.947l-7.216-7.215 7.216-7.216a2.084 2.084 0 0 0-.001-2.947zm20.521 20.325a2.081 2.081 0 0 0 2.948 0l8.688-8.688a2.085 2.085 0 0 0 0-2.948l-8.688-8.689a2.083 2.083 0 1 0-2.947 2.947l7.215 7.216-7.215 7.215a2.083 2.083 0 0 0-.001 2.947zm-17.568 4.452a2.085 2.085 0 0 0 2.797-.932l12.506-25.011a2.083 2.083 0 0 0-.933-2.796 2.087 2.087 0 0 0-2.797.932L40.861 59.479a2.083 2.083 0 0 0 .932 2.796z"></path></g><!----><g data-v-423bf9ae="" id="077c7384-7450-4431-8b94-bec13d8b8a5c" fill="#000000" transform="matrix(2.2745044231414795,0,0,2.2745044231414795,65.54361724853516,191.18923950195312)"><path d="M0.96 3.64L0.38 3.64L0.39 3.08L3.90 3.08L3.90 3.64L3.67 3.64L3.67 3.64Q3.12 3.64 2.95 3.73L2.95 3.73L2.95 3.73Q2.82 3.81 2.82 4.28L2.82 4.28L2.82 11.22L2.82 11.22Q2.82 11.68 2.93 11.77L2.93 11.77L2.93 11.77Q3.04 11.87 3.57 11.87L3.57 11.87L4.12 11.87L4.13 12.41L0.55 12.41L0.53 11.87L0.90 11.87L0.90 11.87Q1.46 11.87 1.57 11.77L1.57 11.77L1.57 11.77Q1.68 11.67 1.68 11.25L1.68 11.25L1.68 4.14L1.68 4.14Q1.68 3.77 1.58 3.71L1.58 3.71L1.58 3.71Q1.47 3.64 0.96 3.64L0.96 3.64ZM12.15 5.35L11.65 5.33L11.65 5.33Q11.77 4.17 11.85 3.08L11.85 3.08L19.93 3.08L19.93 3.08Q19.85 4.13 19.82 4.53L19.82 4.53L19.82 4.53Q19.78 5.26 19.76 5.32L19.76 5.32L19.26 5.30L19.26 5.30Q19.35 4.34 19.35 4.16L19.35 4.16L19.35 4.16Q19.35 3.88 19.20 3.79L19.20 3.79L19.20 3.79Q19.03 3.69 18.63 3.69L18.63 3.69L17.02 3.69L17.02 3.69Q16.52 3.69 16.39 3.79L16.39 3.79L16.39 3.79Q16.30 3.87 16.29 4.36L16.29 4.36L16.29 11.22L16.29 11.22Q16.29 11.66 16.43 11.76L16.43 11.76L16.43 11.76Q16.59 11.87 17.10 11.87L17.10 11.87L17.66 11.87L17.68 12.41L13.99 12.40L13.99 11.87L14.21 11.87L14.21 11.87Q14.88 11.87 15.02 11.79L15.02 11.79L15.02 11.79Q15.16 11.70 15.16 11.28L15.16 11.28L15.16 4.48L15.16 4.48Q15.16 3.92 15.06 3.80L15.06 3.80L15.06 3.80Q14.96 3.69 14.54 3.69L14.54 3.69L13.07 3.69L13.07 3.69Q12.89 3.69 12.82 3.71L12.82 3.71L12.82 3.71Q12.75 3.72 12.64 3.72L12.64 3.72L12.64 3.72Q12.61 3.72 12.50 3.79L12.50 3.79L12.50 3.79Q12.41 3.84 12.39 3.86L12.39 3.86L12.39 3.86Q12.36 3.88 12.32 3.99L12.32 3.99L12.32 3.99Q12.29 4.05 12.26 4.14L12.26 4.14L12.26 4.14Q12.24 4.21 12.22 4.36L12.22 4.36L12.22 4.36Q12.19 4.59 12.19 4.61L12.19 4.61L12.19 4.61Q12.19 4.80 12.17 4.95L12.17 4.95L12.17 4.95Q12.17 5.02 12.17 5.15L12.17 5.15L12.17 5.15Q12.16 5.29 12.15 5.35L12.15 5.35ZM28.05 3.64L27.67 3.64L27.67 3.08L31.04 3.08L31.05 3.64L30.52 3.64L30.52 3.64Q30.08 3.64 29.93 3.73L29.93 3.73L29.93 3.73Q29.76 3.83 29.76 4.16L29.76 4.16L29.76 9.33L29.76 9.33Q29.76 9.63 29.79 9.78L29.79 9.78L29.79 9.78Q29.83 10.01 30.00 10.41L30.00 10.41L30.00 10.41Q30.17 10.80 30.46 11.09L30.46 11.09L30.46 11.09Q30.77 11.40 31.33 11.63L31.33 11.63L31.33 11.63Q31.90 11.85 32.68 11.85L32.68 11.85L32.68 11.85Q33.54 11.85 34.08 11.67L34.08 11.67L34.08 11.67Q34.64 11.48 34.95 11.22L34.95 11.22L34.95 11.22Q35.26 10.96 35.40 10.49L35.40 10.49L35.40 10.49Q35.57 9.95 35.58 9.66L35.58 9.66L35.58 9.66Q35.61 9.18 35.62 8.67L35.62 8.67L35.62 4.14L35.62 4.14Q35.62 3.81 35.47 3.72L35.47 3.72L35.47 3.72Q35.32 3.64 34.84 3.64L34.84 3.64L34.35 3.64L34.38 3.08L37.01 3.08L37.01 3.64L36.82 3.64L36.82 3.64Q36.50 3.64 36.38 3.75L36.38 3.75L36.38 3.75Q36.27 3.86 36.27 4.25L36.27 4.25L36.27 9.22L36.27 9.22Q36.27 12.67 32.68 12.67L32.68 12.67L32.68 12.67Q30.52 12.67 29.57 11.76L29.57 11.76L29.57 11.76Q28.63 10.86 28.63 9.41L28.63 9.41L28.63 4.14L28.63 4.14Q28.63 3.81 28.53 3.72L28.53 3.72L28.53 3.72Q28.42 3.64 28.05 3.64L28.05 3.64ZM44.76 3.64L44.75 3.08L46.92 3.08L52.66 10.48L52.66 4.14L52.66 4.14Q52.66 3.81 52.50 3.72L52.50 3.72L52.50 3.72Q52.35 3.64 51.89 3.64L51.89 3.64L51.40 3.64L51.43 3.08L54.41 3.08L54.41 3.64L54.09 3.64L54.09 3.64Q53.62 3.64 53.47 3.75L53.47 3.75L53.47 3.75Q53.32 3.86 53.32 4.25L53.32 4.25L53.32 12.32L53.32 12.47L53.32 12.47Q53.32 12.52 53.31 12.57L53.31 12.57L53.31 12.57Q53.29 12.61 53.26 12.64L53.26 12.64L53.26 12.64Q53.25 12.65 53.19 12.65L53.19 12.65L53.00 12.65L52.94 12.65L52.91 12.65L52.88 12.64L52.88 12.64Q52.86 12.64 52.84 12.63L52.84 12.63L52.84 12.63Q52.83 12.61 52.83 12.60L52.83 12.60L52.83 12.60Q52.83 12.58 52.81 12.57L52.81 12.57L52.81 12.57Q52.79 12.54 52.76 12.50L52.76 12.50L52.76 12.50Q52.75 12.48 52.73 12.45L52.73 12.45L52.73 12.45Q52.71 12.41 52.69 12.40L52.69 12.40L46.59 4.56L46.66 11.22L46.66 11.22Q46.66 11.67 46.82 11.77L46.82 11.77L46.82 11.77Q46.98 11.87 47.69 11.87L47.69 11.87L47.93 11.87L47.93 12.41L44.99 12.41L44.99 11.87L45.41 11.87L45.41 11.87Q45.79 11.87 45.90 11.76L45.90 11.76L45.90 11.76Q45.99 11.66 46.00 11.25L46.00 11.25L46.00 3.80L45.86 3.64L44.76 3.64ZM62.73 3.64L62.15 3.64L62.16 3.08L65.67 3.08L65.67 3.64L65.44 3.64L65.44 3.64Q64.89 3.64 64.72 3.73L64.72 3.73L64.72 3.73Q64.59 3.81 64.59 4.28L64.59 4.28L64.59 11.22L64.59 11.22Q64.59 11.68 64.70 11.77L64.70 11.77L64.70 11.77Q64.80 11.87 65.34 11.87L65.34 11.87L65.88 11.87L65.90 12.41L62.32 12.41L62.30 11.87L62.67 11.87L62.67 11.87Q63.23 11.87 63.34 11.77L63.34 11.77L63.34 11.77Q63.45 11.67 63.45 11.25L63.45 11.25L63.45 4.14L63.45 4.14Q63.45 3.77 63.35 3.71L63.35 3.71L63.35 3.71Q63.24 3.64 62.73 3.64L62.73 3.64ZM74.13 3.64L73.64 3.64L73.64 3.08L77.15 3.08L77.14 3.64L76.40 3.64L76.40 3.64Q76.06 3.64 76.06 3.82L76.06 3.82L76.06 3.82Q76.06 3.98 76.25 4.48L76.25 4.48L78.86 10.94L81.80 4.18L81.80 4.18Q81.87 3.97 81.87 3.92L81.87 3.92L81.87 3.92Q81.87 3.79 81.77 3.74L81.77 3.74L81.77 3.74Q81.68 3.68 81.53 3.65L81.53 3.65L81.53 3.65Q81.45 3.64 81.18 3.64L81.18 3.64L80.74 3.64L80.71 3.08L83.55 3.08L83.52 3.64L83.12 3.64L83.12 3.64Q82.80 3.64 82.64 3.83L82.64 3.83L82.64 3.83Q82.56 3.93 82.09 4.94L82.09 4.94L82.09 4.94Q81.88 5.46 81.81 5.57L81.81 5.57L78.68 12.63L78.44 12.63L75.20 4.73L75.20 4.73Q74.87 3.93 74.73 3.79L74.73 3.79L74.73 3.79Q74.57 3.63 74.13 3.64L74.13 3.64ZM91.30 3.64L91.29 3.08L98.50 3.08L98.50 3.08Q98.51 4.14 98.57 5.28L98.57 5.28L98.02 5.30L98.02 5.30Q98.01 4.66 97.95 4.25L97.95 4.25L97.95 4.25Q97.91 3.89 97.86 3.80L97.86 3.80L97.86 3.80Q97.80 3.71 97.69 3.69L97.69 3.69L97.69 3.69Q97.59 3.68 97.00 3.68L97.00 3.68L94.62 3.68L94.62 3.68Q94.08 3.68 93.93 3.77L93.93 3.77L93.93 3.77Q93.81 3.86 93.81 4.33L93.81 4.33L93.81 6.28L93.81 6.28Q93.81 6.69 93.86 6.76L93.86 6.76L93.86 6.76Q93.93 6.84 94.27 6.84L94.27 6.84L96.39 6.84L96.39 6.84Q96.75 6.84 96.83 6.73L96.83 6.73L96.83 6.73Q96.91 6.63 96.92 6.14L96.92 6.14L96.92 5.61L97.43 5.63L97.43 8.97L96.92 8.97L96.92 8.24L96.92 8.24Q96.92 7.66 96.84 7.57L96.84 7.57L96.84 7.57Q96.76 7.46 96.41 7.46L96.41 7.46L94.32 7.46L94.32 7.46Q93.98 7.46 93.90 7.54L93.90 7.54L93.90 7.54Q93.81 7.63 93.81 7.89L93.81 7.89L93.81 11.20L93.81 11.20Q93.81 11.57 93.90 11.67L93.90 11.67L93.90 11.67Q93.98 11.77 94.25 11.77L94.25 11.77L94.25 11.77Q97.17 11.75 97.70 11.69L97.70 11.69L97.70 11.69Q98.22 11.63 98.30 11.38L98.30 11.38L98.31 11.36L98.31 11.35L98.54 10.17L99.02 10.25L98.67 12.41L91.57 12.41L91.57 11.87L91.94 11.87L91.94 11.87Q92.50 11.87 92.58 11.80L92.58 11.80L92.58 11.80Q92.67 11.72 92.67 11.33L92.67 11.33L92.67 4.24L92.67 4.24Q92.67 3.82 92.52 3.73L92.52 3.73L92.52 3.73Q92.35 3.64 91.70 3.64L91.70 3.64L91.30 3.64ZM107.23 3.64L106.84 3.64L106.85 3.08L110.07 3.08L110.07 3.08Q111.21 3.08 111.81 3.21L111.81 3.21L111.81 3.21Q112.45 3.37 112.92 3.75L112.92 3.75L112.92 3.75Q113.92 4.57 113.92 5.71L113.92 5.71L113.92 5.71Q113.92 6.43 113.45 7.04L113.45 7.04L113.45 7.04Q112.96 7.66 111.92 7.92L111.92 7.92L114.61 11.49L114.61 11.49Q114.92 11.87 115.21 11.87L115.21 11.87L115.81 11.87L115.84 12.41L113.81 12.41L110.82 8.10L110.65 8.10L110.65 8.10Q110.61 8.10 110.55 8.11L110.55 8.11L110.55 8.11Q110.50 8.11 110.48 8.11L110.48 8.11L110.48 8.11Q109.60 8.11 109.20 8.03L109.20 8.03L109.20 11.46L109.20 11.46Q109.20 11.76 109.35 11.81L109.35 11.81L109.35 11.81Q109.47 11.87 110.17 11.87L110.17 11.87L110.89 11.87L110.86 12.41L107.13 12.41L107.13 11.87L107.45 11.87L107.45 11.87Q107.92 11.87 107.99 11.81L107.99 11.81L107.99 11.81Q108.07 11.74 108.07 11.46L108.07 11.46L108.07 4.14L108.07 4.14Q108.07 3.82 107.88 3.73L107.88 3.73L107.88 3.73Q107.65 3.64 107.23 3.64L107.23 3.64ZM109.20 4.28L109.20 7.57L109.20 7.57Q109.39 7.70 110.10 7.71L110.10 7.71L110.10 7.71Q111.37 7.71 111.95 7.27L111.95 7.27L111.95 7.27Q112.54 6.84 112.54 5.92L112.54 5.92L112.54 5.92Q112.54 4.92 111.77 4.27L111.77 4.27L111.77 4.27Q111.01 3.64 109.63 3.64L109.63 3.64L109.63 3.64Q109.38 3.64 109.29 3.75L109.29 3.75L109.29 3.75Q109.21 3.84 109.20 4.28L109.20 4.28ZM123.57 10.04L123.57 10.04L124.06 9.98L124.24 10.85L124.24 10.85Q124.35 11.33 124.42 11.41L124.42 11.41L124.42 11.41Q124.49 11.49 124.90 11.64L124.90 11.64L124.90 11.64Q125.74 11.95 126.64 11.95L126.64 11.95L126.64 11.95Q127.42 11.95 127.96 11.49L127.96 11.49L127.96 11.49Q128.50 11.04 128.50 10.26L128.50 10.26L128.50 10.26Q128.50 9.65 128.04 9.21L128.04 9.21L128.04 9.21Q127.56 8.76 126.70 8.30L126.70 8.30L126.13 7.98L126.13 7.98Q125.38 7.55 125.15 7.36L125.15 7.36L125.15 7.36Q124.79 7.08 124.48 6.59L124.48 6.59L124.48 6.59Q124.17 6.10 124.17 5.46L124.17 5.46L124.17 5.46Q124.17 4.39 125.01 3.68L125.01 3.68L125.01 3.68Q125.85 2.97 126.96 2.97L126.96 2.97L126.96 2.97Q127.24 2.97 127.59 3.04L127.59 3.04L127.59 3.04Q127.78 3.08 128.12 3.17L128.12 3.17L128.36 3.25L128.36 3.25Q128.45 3.25 128.50 3.16L128.50 3.16L128.50 3.16Q128.55 3.05 128.55 2.98L128.55 2.98L128.56 2.88L129.04 2.85L129.25 5.41L128.75 5.43L128.63 4.18L128.63 4.18Q127.88 3.62 126.72 3.62L126.72 3.62L126.72 3.62Q126.08 3.62 125.57 4.05L125.57 4.05L125.57 4.05Q125.09 4.47 125.09 5.12L125.09 5.12L125.09 5.12Q125.09 5.72 125.54 6.17L125.54 6.17L125.54 6.17Q125.97 6.60 126.84 7.08L126.84 7.08L127.61 7.50L127.61 7.50Q128.56 8.03 129.10 8.59L129.10 8.59L129.10 8.59Q129.63 9.15 129.63 9.92L129.63 9.92L129.63 9.92Q129.63 10.99 128.78 11.76L128.78 11.76L128.78 11.76Q127.91 12.54 126.45 12.54L126.45 12.54L126.45 12.54Q125.89 12.54 125.39 12.41L125.39 12.41L125.39 12.41Q124.89 12.29 124.83 12.29L124.83 12.29L124.83 12.29Q124.58 12.29 124.58 12.58L124.58 12.58L124.59 12.76L124.11 12.80L124.11 12.80Q124.05 12.41 123.57 10.04ZM138.40 3.64L137.81 3.64L137.83 3.08L141.34 3.08L141.34 3.64L141.11 3.64L141.11 3.64Q140.56 3.64 140.39 3.73L140.39 3.73L140.39 3.73Q140.25 3.81 140.25 4.28L140.25 4.28L140.25 11.22L140.25 11.22Q140.25 11.68 140.36 11.77L140.36 11.77L140.36 11.77Q140.47 11.87 141.00 11.87L141.00 11.87L141.55 11.87L141.57 12.41L137.98 12.41L137.97 11.87L138.33 11.87L138.33 11.87Q138.89 11.87 139.01 11.77L139.01 11.77L139.01 11.77Q139.12 11.67 139.12 11.25L139.12 11.25L139.12 4.14L139.12 4.14Q139.12 3.77 139.02 3.71L139.02 3.71L139.02 3.71Q138.91 3.64 138.40 3.64L138.40 3.64ZM149.58 5.35L149.08 5.33L149.08 5.33Q149.21 4.17 149.29 3.08L149.29 3.08L157.37 3.08L157.37 3.08Q157.29 4.13 157.26 4.53L157.26 4.53L157.26 4.53Q157.22 5.26 157.20 5.32L157.20 5.32L156.70 5.30L156.70 5.30Q156.78 4.34 156.78 4.16L156.78 4.16L156.78 4.16Q156.78 3.88 156.64 3.79L156.64 3.79L156.64 3.79Q156.47 3.69 156.06 3.69L156.06 3.69L154.46 3.69L154.46 3.69Q153.95 3.69 153.83 3.79L153.83 3.79L153.83 3.79Q153.73 3.87 153.73 4.36L153.73 4.36L153.73 11.22L153.73 11.22Q153.73 11.66 153.87 11.76L153.87 11.76L153.87 11.76Q154.03 11.87 154.54 11.87L154.54 11.87L155.10 11.87L155.11 12.41L151.42 12.40L151.42 11.87L151.64 11.87L151.64 11.87Q152.31 11.87 152.46 11.79L152.46 11.79L152.46 11.79Q152.60 11.70 152.60 11.28L152.60 11.28L152.60 4.48L152.60 4.48Q152.60 3.92 152.50 3.80L152.50 3.80L152.50 3.80Q152.40 3.69 151.98 3.69L151.98 3.69L150.51 3.69L150.51 3.69Q150.32 3.69 150.25 3.71L150.25 3.71L150.25 3.71Q150.19 3.72 150.08 3.72L150.08 3.72L150.08 3.72Q150.05 3.72 149.93 3.79L149.93 3.79L149.93 3.79Q149.85 3.84 149.82 3.86L149.82 3.86L149.82 3.86Q149.80 3.88 149.75 3.99L149.75 3.99L149.75 3.99Q149.73 4.05 149.70 4.14L149.70 4.14L149.70 4.14Q149.67 4.21 149.65 4.36L149.65 4.36L149.65 4.36Q149.63 4.59 149.63 4.61L149.63 4.61L149.63 4.61Q149.63 4.80 149.61 4.95L149.61 4.95L149.61 4.95Q149.61 5.02 149.60 5.15L149.60 5.15L149.60 5.15Q149.60 5.29 149.58 5.35L149.58 5.35ZM165.25 3.64L165.25 3.64L165.27 3.08L168.40 3.08L168.40 3.64L168.12 3.64L168.12 3.64Q167.67 3.64 167.56 3.66L167.56 3.66L167.56 3.66Q167.39 3.71 167.39 3.82L167.39 3.82L167.39 3.82Q167.39 3.89 167.64 4.31L167.64 4.31L169.65 7.46L172.09 3.99L172.09 3.99Q172.18 3.83 172.18 3.82L172.18 3.82L172.18 3.82Q172.18 3.64 171.27 3.64L171.27 3.64L171.05 3.64L171.04 3.08L173.58 3.08L173.58 3.64L173.51 3.64L173.51 3.64Q173.16 3.64 173.02 3.72L173.02 3.72L173.02 3.72Q172.86 3.80 172.57 4.22L172.57 4.22L169.85 8.17L169.85 11.22L169.85 11.22Q169.85 11.66 169.96 11.77L169.96 11.77L169.96 11.77Q170.05 11.87 170.67 11.87L170.67 11.87L171.30 11.87L171.28 12.41L167.35 12.41L167.36 11.87L167.92 11.87L167.92 11.87Q168.46 11.87 168.58 11.79L168.58 11.79L168.58 11.79Q168.71 11.70 168.71 11.25L168.71 11.25L168.71 8.06L166.41 4.49L166.41 4.49Q166.00 3.84 165.87 3.73L165.87 3.73L165.87 3.73Q165.76 3.64 165.25 3.64Z"></path></g></svg>