<svg data-v-423bf9ae="" xmlns="http://www.w3.org/2000/svg" viewBox="0 0 525.2588877368416 60" class="font"><!----><!----><!----><g data-v-423bf9ae="" id="2f73d473-efdf-437e-8745-1ce5e789eb74" fill="white" transform="matrix(6.091371059417725,0,0,6.091371059417725,-6.39592981338501,-22.11168098449707)"><path d="M2.03 13.30L2.03 9.04L6.36 9.04L6.36 13.30L7.34 13.30L7.34 3.78L6.36 3.78L6.36 8.06L2.03 8.06L2.03 3.78L1.05 3.78L1.05 13.30ZM14.34 10.22C14.34 10.82 14.13 11.34 13.71 11.79C13.30 12.24 12.78 12.46 12.17 12.46C11.55 12.46 11.04 12.24 10.62 11.79C10.20 11.34 10.00 10.82 10.00 10.22C10.00 9.62 10.20 9.10 10.62 8.65C11.04 8.20 11.55 7.98 12.17 7.98C12.78 7.98 13.30 8.20 13.71 8.65C14.13 9.10 14.34 9.62 14.34 10.22ZM15.32 13.30L15.32 7.14L14.34 7.14L14.34 8.19C14.28 8.12 14.22 8.05 14.16 7.98C13.58 7.33 12.86 7.00 12.01 7.00C11.16 7.00 10.44 7.33 9.86 7.98C9.30 8.61 9.02 9.36 9.02 10.22C9.02 11.08 9.30 11.83 9.86 12.46C10.44 13.11 11.16 13.44 12.01 13.44C12.86 13.44 13.58 13.11 14.16 12.46C14.22 12.39 14.28 12.32 14.34 12.25L14.34 13.30ZM18.31 12.42C18.06 12.26 17.88 11.98 17.78 11.58L16.74 11.58C16.96 12.85 17.78 13.48 19.21 13.48C19.54 13.48 19.85 13.44 20.14 13.36C20.43 13.28 20.69 13.17 20.93 13.01C21.40 12.69 21.64 12.20 21.64 11.54C21.64 10.88 21.32 10.39 20.69 10.09C20.42 9.96 20.12 9.86 19.81 9.79C19.50 9.72 19.20 9.64 18.93 9.56C18.66 9.47 18.43 9.37 18.25 9.24C18.07 9.11 17.97 8.91 17.97 8.63C17.97 8.35 18.09 8.15 18.31 8.01C18.53 7.88 18.79 7.81 19.10 7.81C19.40 7.81 19.66 7.87 19.87 7.98C20.09 8.09 20.25 8.32 20.35 8.67L21.40 8.67C21.27 8.04 21.01 7.61 20.61 7.37C20.21 7.12 19.72 7.00 19.12 7.00C18.53 7.00 18.01 7.16 17.58 7.47C17.15 7.79 16.94 8.25 16.94 8.86C16.94 9.17 17.02 9.43 17.17 9.66C17.33 9.88 17.57 10.07 17.89 10.22C18.16 10.34 18.46 10.44 18.77 10.52C19.08 10.59 19.37 10.68 19.64 10.76C20.28 10.97 20.61 11.27 20.61 11.66C20.61 12.33 20.16 12.67 19.26 12.67C18.87 12.67 18.56 12.59 18.31 12.42ZM24.04 5.01C23.92 4.89 23.77 4.83 23.60 4.83C23.42 4.83 23.28 4.89 23.16 5.01C23.03 5.13 22.97 5.28 22.97 5.45C22.97 5.63 23.03 5.77 23.16 5.89C23.28 6.02 23.42 6.08 23.60 6.08C23.77 6.08 23.92 6.02 24.04 5.89C24.16 5.77 24.22 5.63 24.22 5.45C24.22 5.28 24.16 5.13 24.04 5.01ZM24.09 13.30L24.09 7.14L23.11 7.14L23.11 13.30ZM30.51 13.30L31.49 13.30L31.49 9.45C31.49 8.74 31.30 8.16 30.93 7.72C30.74 7.50 30.51 7.33 30.24 7.20C29.97 7.08 29.61 7.01 29.18 7.01C28.74 7.01 28.35 7.13 28.01 7.36C27.70 7.57 27.44 7.85 27.23 8.20L27.23 7.14L26.25 7.14L26.25 13.30L27.23 13.30L27.23 10.72C27.23 9.94 27.38 9.32 27.67 8.86C27.83 8.60 28.05 8.39 28.31 8.23C28.57 8.07 28.91 7.99 29.33 7.99C29.75 7.99 30.05 8.14 30.23 8.42C30.41 8.71 30.51 9.05 30.51 9.45ZM38.28 10.22C38.28 10.82 38.07 11.34 37.65 11.79C37.24 12.24 36.72 12.46 36.11 12.46C35.49 12.46 34.98 12.24 34.56 11.79C34.14 11.34 33.94 10.82 33.94 10.22C33.94 9.62 34.14 9.10 34.56 8.65C34.98 8.20 35.49 7.98 36.11 7.98C36.72 7.98 37.24 8.20 37.65 8.65C38.07 9.10 38.28 9.62 38.28 10.22ZM39.26 13.30L39.26 7.14L38.28 7.14L38.28 8.19C38.22 8.12 38.16 8.05 38.10 7.98C37.52 7.33 36.80 7.00 35.95 7.00C35.10 7.00 34.38 7.33 33.80 7.98C33.24 8.61 32.96 9.36 32.96 10.22C32.96 11.08 33.24 11.83 33.80 12.46C34.38 13.11 35.10 13.44 35.95 13.44C36.80 13.44 37.52 13.11 38.10 12.46C38.16 12.39 38.22 12.32 38.28 12.25L38.28 13.30ZM47.01 13.30L47.01 12.39L42.34 12.39L42.34 9.00L46.87 9.00L46.87 8.08L42.34 8.08L42.34 4.69L47.01 4.69L47.01 3.78L41.36 3.78L41.36 13.30ZM48.34 4.66L50.65 4.66L50.65 13.27L51.63 13.27L51.63 4.66L53.94 4.66L53.94 3.75L51.63 3.75L50.65 3.75L48.34 3.75ZM62.16 10.15L62.16 3.78L61.18 3.78L61.18 10.29C61.18 10.67 61.11 11.00 60.97 11.27C60.56 12.05 59.78 12.45 58.62 12.45C57.87 12.45 57.27 12.28 56.82 11.94C56.30 11.56 56.04 11.01 56.04 10.29L56.04 3.78L55.06 3.78L55.06 10.15C55.06 11.18 55.40 11.99 56.07 12.59C56.70 13.15 57.55 13.43 58.62 13.43C59.67 13.43 60.52 13.15 61.15 12.59C61.82 11.99 62.16 11.18 62.16 10.15ZM65.07 13.30L66.05 13.30L66.05 3.67L63.70 3.92L63.70 4.77L65.07 4.77ZM69.23 13.30L73.42 3.82L67.44 3.82L67.44 4.80L71.89 4.80L68.14 13.30ZM76.12 8.11C76.73 8.11 77.25 8.33 77.68 8.76C78.10 9.20 78.32 9.72 78.32 10.32C78.32 10.91 78.10 11.41 77.67 11.84C77.25 12.26 76.73 12.47 76.12 12.47C75.52 12.47 74.99 12.26 74.55 11.82C74.11 11.39 73.89 10.88 73.89 10.28C73.89 9.68 74.11 9.17 74.55 8.75C74.76 8.55 74.99 8.40 75.26 8.28C75.53 8.16 75.82 8.11 76.12 8.11ZM79.31 10.25C79.31 9.33 78.98 8.57 78.33 7.98C77.73 7.43 76.95 7.14 75.99 7.10L75.71 7.28L78.62 3.78L77.34 3.78L73.61 8.27C73.14 8.85 72.90 9.51 72.90 10.28C72.90 11.16 73.21 11.91 73.84 12.52C74.47 13.14 75.22 13.45 76.10 13.45C77.00 13.45 77.76 13.15 78.37 12.53C78.66 12.24 78.89 11.90 79.06 11.52C79.23 11.14 79.31 10.71 79.31 10.25ZM80.57 13.30L87.28 13.30L87.28 12.32L82.94 12.32L86.25 9.03C86.87 8.41 87.18 7.67 87.18 6.80C87.18 5.92 86.86 5.17 86.23 4.56C85.59 3.94 84.83 3.63 83.96 3.63C83.05 3.63 82.27 3.95 81.63 4.61C81.00 5.25 80.70 6.03 80.74 6.94L81.73 6.94C81.68 6.35 81.88 5.82 82.33 5.33C82.76 4.87 83.29 4.63 83.92 4.63C84.53 4.63 85.05 4.84 85.48 5.26C85.91 5.69 86.13 6.20 86.13 6.79C86.13 7.40 85.92 7.91 85.50 8.33Z"></path></g><!----><!----></svg>